<?xml version="1.0" encoding="UTF-8" standalone="no"?>
<!-- Created with Inkscape (http://www.inkscape.org/) -->

<svg
   width="512"
   height="512"
   viewBox="0 0 512 512"
   version="1.1"
   id="svg1"
   xmlns:inkscape="http://www.inkscape.org/namespaces/inkscape"
   xmlns:sodipodi="http://sodipodi.sourceforge.net/DTD/sodipodi-0.dtd"
   xmlns="http://www.w3.org/2000/svg"
   xmlns:svg="http://www.w3.org/2000/svg">
  <sodipodi:namedview
     id="namedview1"
     pagecolor="#ffffff"
     bordercolor="#000000"
     borderopacity="0.25"
     inkscape:showpageshadow="2"
     inkscape:pageopacity="0.0"
     inkscape:pagecheckerboard="0"
     inkscape:deskcolor="#d1d1d1"
     inkscape:document-units="px">
    <inkscape:page
       x="0"
       y="0"
       width="512"
       height="512"
       id="page2"
       margin="0"
       bleed="0" />
  </sodipodi:namedview>
  <defs
     id="defs1" />
  <g
     inkscape:label="Layer 1"
     inkscape:groupmode="layer"
     id="layer1">
    <path
       style="fill:#fe7012;fill-opacity:1"
       d="m 254.30006,494.50879 c 7.34677,0.62808 12.03694,-0.81035 20.48972,-4.03341 6.7462,-2.57234 20.78478,-10.32014 20.78478,-10.32014 0,0 116.86792,-69.8003 129.58067,-76.69572 14.77424,-8.01357 27.15794,-14.61712 35.49398,-28.71787 10.00885,-16.931 10.25153,-23.22914 10.00285,-40.97941 -0.49418,-50.56354 0.75837,-101.09629 -0.32267,-151.65614 -0.005,-16.52451 2.0407,-28.44203 -7.74414,-42.27011 -12.62977,-17.8486 -18.0314,-19.63431 -30.00855,-26.78182 C 405.36374,96.814508 300.3616,35.774066 300.3616,35.774066 c 0,0 -12.84485,-8.19645 -25.57181,-13.39091 -6.60414,-2.69545 -13.14295,-4.66149 -20.48972,-4.03341 0.45778,32.51119 0.4308,32.32701 0.39928,-0.0783 -7.34677,-0.62808 -13.88558,1.33796 -20.48972,4.03341 -12.72696,5.19446 -25.57181,13.39091 -25.57181,13.39091 0,0 -105.00214,61.040442 -132.215106,77.280104 -11.97715,7.14751 -17.37878,8.93322 -30.00855,26.78182 -9.78484,13.82808 -7.73914,25.7456 -7.74414,42.27011 -1.08104,50.55985 0.17151,101.0926 -0.32267,151.65614 -0.24868,17.75027 -0.006,24.04841 10.00285,40.97941 8.33604,14.10075 20.71974,20.7043 35.49398,28.71787 12.712751,6.89542 129.580676,76.69572 129.580676,76.69572 0,0 14.03858,7.7478 20.78478,10.32014 8.45278,3.22306 13.14295,4.66149 20.48972,4.03341"
       id="path4"
       sodipodi:nodetypes="cscsssssscsccscsssssscsc" />
    <path
       style="fill:#05192a;fill-opacity:1;stroke-width:0.888383"
       d="m 254.00033,469.35595 c 6.5028,0.56003 10.65418,-0.72256 18.13594,-3.59641 5.97124,-2.29363 18.39711,-9.20197 18.39711,-9.20197 0,0 103.44266,-62.23759 114.69502,-68.38591 13.07705,-7.14531 24.03816,-13.03339 31.41658,-25.60635 8.85908,-15.09656 9.07388,-20.71231 8.85379,-36.53938 -0.43743,-45.08509 0.67124,-90.14274 -0.28562,-135.22453 -0.005,-14.73412 1.80628,-25.3604 -6.85452,-37.69024 -11.17892,-15.91475 -15.96004,-17.50698 -26.56131,-23.88007 -24.08685,-14.48013 -117.0268,-68.906984 -117.0268,-68.906984 0,0 -11.36929,-7.30838 -22.63424,-11.94003 -5.84548,-2.4034 -11.63314,-4.15642 -18.13594,-3.59639 0.40519,28.98867 0.3813,28.82444 0.3534,-0.0698 -6.50281,-0.56003 -12.29046,1.193 -18.13595,3.59641 -11.26493,4.63165 -22.63424,11.94003 -22.63424,11.94003 0,0 -92.93995,54.426854 -117.026805,68.906964 -10.601271,6.37311 -15.382371,7.96534 -26.561311,23.88008 -8.66079,12.32984 -6.8501,22.95612 -6.85451,37.69023 -0.95687,45.08181 0.1518,90.13945 -0.28561,135.22453 -0.22011,15.82707 -0.006,21.44283 8.85377,36.53939 7.37842,12.57296 18.339531,18.46104 31.416586,25.60636 11.25237,6.14831 114.69502,68.3859 114.69502,68.3859 0,0 12.42588,6.90835 18.3971,9.20199 7.48177,2.87384 11.63315,4.15642 18.13596,3.59638"
       id="path5"
       sodipodi:nodetypes="cscsssssscsccscsssssscsc" />
    <rect
       style="fill:#fd7114;fill-opacity:1;stroke-width:0.955319"
       id="rect5"
       width="28.395184"
       height="32.912647"
       x="54.803619"
       y="206.55089"
       ry="6.1307797" />
    <rect
       style="fill:#fe7415;fill-opacity:1;stroke-width:0.955319"
       id="rect6"
       width="28.395184"
       height="32.912647"
       x="-456.53101"
       y="281.41092"
       ry="6.1307797"
       transform="scale(-1,1)" />
    <path
       style="fill:#3fbae9;fill-opacity:1"
       d="m 231.57486,375.3714 c 1.06914,1.17676 3.1943,0.91266 3.1943,0.91266 0,0 63.7408,-0.0117 70.04634,-0.22817 3.00696,-0.10325 5.96235,-1.19837 8.67023,-2.5098 2.35531,-1.14068 4.42638,-2.83171 6.3886,-4.56328 3.09012,-2.72688 5.58812,-5.80008 8.38207,-9.08865 h 1.3e-4 c 8.74036,-10.28768 4.03546,-4.68875 31.6804,-37.91403 0,0 4.57384,-5.10487 7.42147,-6.93746 3.67006,-2.36186 7.83086,-4.09572 12.10022,-5.00143 4.02589,-0.85406 7.93501,-0.16098 12.34223,-0.32267 1.31916,-0.0484 2.46649,-0.0621 4.84009,-0.0807 1.56324,-0.0122 1.25885,-1.74487 1.21002,-3.30739 -0.16036,-5.13091 -0.0254,-7.27725 0.0981,-15.39994 l -10e-6,3e-5 c 0.026,-1.70933 -3.23936,-1.29461 -4.94803,-1.34883 -18.17972,-0.57689 -52.11405,-0.28352 -52.11405,-0.28352 0,0 -4.75573,0.21624 -7.08653,3.15737 -6.04194,7.62405 -9.68035,13.95193 -14.6816,20.81238 -3.58907,4.92331 -6.65111,11.02382 -11.61621,12.58423 -3.86207,1.21376 -44.52883,0.48402 -44.52883,0.48402 l 0.42055,-16.57039 27.01474,0.48401 c 0,0 4.98637,-0.13974 6.86252,-1.10167 3.38997,-1.73808 7.81097,-7.98042 7.81097,-7.98042 l 19.26249,-27.61284 c 0,0 1.33126,-2.57973 3.51513,-3.13895 5.0465,-1.29224 53.47735,-0.62645 79.73175,-0.59809 2.68474,0.003 5.68053,0.23651 7.84467,1.82533 1.96277,1.44099 3.69226,3.85725 3.71073,6.29212 0.11073,14.59469 -0.37859,29.10591 0,44.52882 0.0463,1.8878 -1.47648,3.78767 -2.67589,4.99331 -1.38894,1.39615 -3.17137,2.55741 -5.06825,2.5895 -9.75118,0.16495 -16.12403,0.0576 -24.84579,0.32267 -1.5204,0.0462 -3.49034,-0.0692 -4.97375,0.26731 -1.89099,0.42893 -3.27015,1.77786 -4.38376,2.99856 -3.26705,3.58122 -21.29639,24.96798 -21.29639,24.96798 0,0 -10.46242,13.88588 -16.63512,19.96223 -3.96995,3.90798 -8.26633,7.56731 -13.00535,10.49554 -4.05344,2.50462 -8.28622,5.27411 -13.00535,5.93227 -7.69903,1.07376 -63.18868,2.00949 -86.70232,1.59714 -4.08089,-0.0716 -8.04205,-2.61381 -10.95187,-5.47593 -2.93447,-2.88637 -4.60176,-6.94478 -5.54276,-10.95187 -0.92169,-3.92485 -0.63158,-7.0269 -0.6258,-11.05786 0.003,-1.84255 0.29472,-3.18893 -0.61945,-4.00097 -0.79014,-0.70187 -1.96656,-0.75796 -2.80479,-0.70811 -1.31608,0.0783 -31.52606,0.70473 -47.67649,0.70811 -1.55122,3.2e-4 -3.10731,-0.37747 -4.56328,-0.91265 -1.4699,-0.5403 -2.84979,-1.34778 -4.10695,-2.28164 -5.87191,-4.36183 -10.95987,-9.75314 -15.74332,-15.28699 -1.10432,-1.27756 -2.2379,-2.58335 -2.96613,-4.10695 -0.74791,-1.56476 -1.27197,-3.28801 -1.36898,-5.01961 -0.57434,-10.25191 -0.0469,-20.24897 0,-31.0303 0.008,-1.91499 -0.0284,-3.92674 0.68449,-5.7041 0.70784,-1.7647 2.16584,-3.13636 3.42246,-4.56328 4.69217,-5.32804 8.52862,-10.17257 13.91801,-15.28699 1.59363,-1.51233 1.92245,-2.04947 3.87878,-3.1943 1.26774,-0.74187 2.63914,-1.54155 4.10695,-1.59714 17.98042,-0.68093 35.44847,0.27569 53.16221,-0.22817 1.44645,-0.0411 4.33512,-0.22816 4.33512,-0.22816 0,0 6.06968,-5.48813 9.40474,-7.84111 2.97564,-2.0994 9.40475,-5.55947 9.40475,-5.55947 0,0 4.02626,-2.16637 6.16043,-2.96613 2.95448,-1.10717 6.07157,-1.72124 9.12656,-2.5098 2.19692,-0.56707 4.48557,-0.81861 6.61675,-1.59715 1.75712,-0.64189 3.40837,-1.55931 5.01961,-2.5098 1.2719,-0.75031 2.4909,-1.59563 3.65063,-2.50981 2.41074,-1.90031 4.60604,-4.0605 6.84504,-6.16043 3.4129,-3.2009 10.03922,-9.81105 10.03922,-9.81105 0,0 0.0584,-55.3584 0.68449,-85.33333 0.0227,-1.0887 -0.542,-2.25769 -1.36898,-2.96613 -0.84098,-0.72043 -3.1943,-0.91266 -3.1943,-0.91266 0,0 -63.7408,0.0117 -70.04634,0.22817 -3.00696,0.10325 -5.96235,1.19837 -8.67023,2.5098 -2.35531,1.14068 -4.42638,2.83171 -6.3886,4.56328 -3.09012,2.72688 -5.58812,5.80008 -8.38207,9.08865 h -1.3e-4 c -8.74036,10.28768 -4.03546,4.68875 -31.6804,37.91403 0,0 -4.57384,5.10487 -7.42147,6.93746 -3.67006,2.36186 -7.83086,4.09572 -12.10022,5.00143 -4.02589,0.85406 -7.93501,0.16098 -12.34223,0.32267 -1.31916,0.0484 -2.46649,0.0621 -4.84009,0.0807 -1.56324,0.0122 -1.25882,1.74487 -1.21002,3.30739 0.16036,5.13091 0.0254,7.27725 -0.0981,15.39994 l 10e-6,-3e-5 c -0.026,1.70933 3.23936,1.29463 4.94803,1.34883 18.17972,0.57689 52.11405,0.28352 52.11405,0.28352 0,0 4.75573,-0.21624 7.08653,-3.15737 6.04194,-7.62405 9.68035,-13.95193 14.6816,-20.81238 3.58907,-4.92331 6.65111,-11.02382 11.61621,-12.58423 3.86207,-1.21376 44.52883,-0.48402 44.52883,-0.48402 l -0.42055,16.57039 -27.01474,-0.48401 c 0,0 -4.98637,0.13974 -6.86252,1.10167 -3.38997,1.73808 -7.81097,7.98042 -7.81097,7.98042 l -19.26249,27.61284 c 0,0 -1.33126,2.57973 -3.51513,3.13895 -5.0465,1.29224 -53.47735,0.62649 -79.73175,0.59809 -2.684745,-0.003 -5.680535,-0.23651 -7.844675,-1.82533 -1.96277,-1.44099 -3.69223,-3.85725 -3.71073,-6.29212 -0.11073,-14.59469 0.37859,-29.10591 0,-44.52882 -0.0463,-1.8878 1.47648,-3.78767 2.67589,-4.99331 1.38894,-1.39615 3.17137,-2.5574 5.06825,-2.5895 9.751185,-0.16495 16.124035,-0.0576 24.845795,-0.32267 1.5204,-0.0462 3.49034,0.0692 4.97375,-0.26731 1.89099,-0.42893 3.27015,-1.77786 4.38376,-2.99856 3.26705,-3.58122 21.29639,-24.96798 21.29639,-24.96798 0,0 10.46242,-13.88588 16.63512,-19.96223 3.96995,-3.90798 8.26633,-7.56731 13.00535,-10.49554 4.05344,-2.50462 8.28622,-5.27411 13.00535,-5.93227 7.69903,-1.07376 63.18868,-2.00949 86.70232,-1.59714 4.08089,0.0716 8.04205,2.61381 10.95187,5.47593 2.93447,2.88637 4.60176,6.94478 5.54276,10.95187 0.92169,3.92485 0.6318,7.0269 0.6258,11.05786 -0.003,1.84255 -0.29472,3.18893 0.61945,4.00097 0.79014,0.70211 1.96656,0.75791 2.80479,0.70811 1.31608,-0.0783 31.52606,-0.70511 47.67649,-0.70811 1.55122,-3.2e-4 3.10731,0.37747 4.56328,0.91265 1.4699,0.5403 2.84979,1.34778 4.10695,2.28164 5.87191,4.36183 10.95987,9.75314 15.74332,15.28699 1.10432,1.27756 2.2379,2.58335 2.96613,4.10695 0.74791,1.56476 1.27198,3.28801 1.36898,5.01961 0.57434,10.25191 0.0469,20.24897 0,31.0303 -0.008,1.91499 0.0284,3.92674 -0.68449,5.7041 -0.70784,1.7647 -2.16584,3.13636 -3.42246,4.56328 -4.69217,5.32804 -8.52862,10.17257 -13.91801,15.28699 -1.59363,1.51233 -1.92245,2.04947 -3.87878,3.1943 -1.26774,0.74187 -2.63914,1.54154 -4.10695,1.59714 -17.98042,0.68093 -35.44847,-0.27569 -53.16221,0.22817 -1.44645,0.0411 -3.36852,-0.61905 -5.05875,0.60382 -2.35931,1.70695 -4.30843,4.62049 -6.34958,6.69743 -2.00105,2.03615 -4.2084,3.86104 -6.38859,5.7041 -1.85952,1.57198 -3.78281,3.06742 -5.7041,4.56328 -2.48448,1.93434 -5.32075,4.07274 -7.52941,5.7041 -2.20866,1.63136 -3.45625,3.44628 -5.7041,4.10695 -8.84169,2.59867 -15.60137,4.39456 -24.18539,7.30125 -2.12722,0.72031 -4.29844,1.65334 -5.93226,3.19429 -1.97369,1.8615 -4.2792,4.21542 -4.27106,6.92846 0.082,27.32923 -0.50603,55.31302 -0.1641,82.22256 0.0138,1.08885 0.542,2.25769 1.36898,2.96613"
       id="path9"
       sodipodi:nodetypes="ccsscsscssssssssscccccssccsssssssssscsssssssssssssssssssssscscsssssscsscssssscsssscssccssscccsccssscsssssscssssssccssssssscsssscssssszsssssc" />
    <path
       style="fill:#05182a;fill-opacity:1"
       d="m 300.1241,174.87635 0.45633,51.10874 h 49.28342 l 12.77719,-13.23351 -0.45633,-25.09804 -12.77718,-13.23351 z"
       id="path10" />
    <path
       style="fill:#05172a;fill-opacity:1"
       d="m 210.68382,295.80326 -0.45633,51.10874 h -49.28342 l -12.77719,-13.23351 0.45633,-25.09804 12.77718,-13.23351 z"
       id="path11" />
    <path
       style="fill:#fd7313;fill-opacity:1"
       d="m 231.57486,375.3714 c 1.06914,1.17676 3.1943,0.91266 3.1943,0.91266 0,0 63.7408,-0.0117 70.04634,-0.22817 3.00696,-0.10325 5.96235,-1.19837 8.67023,-2.5098 2.35531,-1.14068 4.42638,-2.83171 6.3886,-4.56328 3.09012,-2.72688 5.58812,-5.80008 8.38207,-9.08865 h 1.3e-4 c 8.74036,-10.28768 4.03546,-4.68875 31.6804,-37.91403 0,0 4.57384,-5.10487 7.42147,-6.93746 3.67006,-2.36186 7.83086,-4.09572 12.10022,-5.00143 4.02589,-0.85406 7.93501,-0.16098 12.34223,-0.32267 1.31916,-0.0484 2.46649,-0.0621 4.84009,-0.0807 1.56324,-0.0122 1.25885,-1.74487 1.21002,-3.30739 -0.16036,-5.13091 -0.0254,-7.27725 0.0981,-15.39994 l -10e-6,3e-5 c 0.026,-1.70933 -3.23936,-1.29461 -4.94803,-1.34883 -18.17972,-0.57689 -52.11405,-0.28352 -52.11405,-0.28352 0,0 -4.75573,0.21624 -7.08653,3.15737 -6.04194,7.62405 -9.68035,13.95193 -14.6816,20.81238 -3.58907,4.92331 -6.65111,11.02382 -11.61621,12.58423 -3.86207,1.21376 -44.52883,0.48402 -44.52883,0.48402 l 0.42055,-16.57039 27.01474,0.48401 c 0,0 4.98637,-0.13974 6.86252,-1.10167 3.38997,-1.73808 7.81097,-7.98042 7.81097,-7.98042 l 19.26249,-27.61284 c 0,0 1.33126,-2.57973 3.51513,-3.13895 5.0465,-1.29224 53.47735,-0.62645 79.73175,-0.59809 2.68474,0.003 5.68053,0.23651 7.84467,1.82533 1.96277,1.44099 3.69226,3.85725 3.71073,6.29212 0.11073,14.59469 -0.37859,29.10591 0,44.52882 0.0463,1.8878 -1.47648,3.78767 -2.67589,4.99331 -1.38894,1.39615 -3.17137,2.55741 -5.06825,2.5895 -9.75118,0.16495 -16.12403,0.0576 -24.84579,0.32267 -1.5204,0.0462 -3.49034,-0.0692 -4.97375,0.26731 -1.89099,0.42893 -3.27015,1.77786 -4.38376,2.99856 -3.26705,3.58122 -21.29639,24.96798 -21.29639,24.96798 0,0 -10.46242,13.88588 -16.63512,19.96223 -3.96995,3.90798 -8.26633,7.56731 -13.00535,10.49554 -4.05344,2.50462 -8.28622,5.27411 -13.00535,5.93227 -7.69903,1.07376 -58.34859,1.84815 -81.86223,1.4358"
       id="path12"
       sodipodi:nodetypes="ccsscsscssssssssscccccssccsssssssssscsssc" />
    <ellipse
       style="fill:#3fbae8;fill-opacity:1;stroke-width:0.925487"
       id="path6"
       cx="249.69789"
       cy="202.19487"
       rx="16.778976"
       ry="17.262985" />
    <ellipse
       style="fill:#fe7215;fill-opacity:1;stroke-width:0.925487"
       id="ellipse6"
       cx="260.99139"
       cy="318.35699"
       rx="16.778976"
       ry="17.262985" />
    <ellipse
       style="fill:#3fb8e7;fill-opacity:1;stroke-width:1.09824"
       id="path7"
       cx="325.52594"
       cy="200.2588"
       rx="11.938888"
       ry="11.454878" />
    <ellipse
       style="fill:#3db9e8;fill-opacity:1;stroke-width:1.09824"
       id="ellipse7"
       cx="185.16339"
       cy="321.26102"
       rx="11.938888"
       ry="11.454878" />
  </g>
</svg>
